<svg width="436" height="82" viewBox="0 0 436 82" fill="none" xmlns="http://www.w3.org/2000/svg">
<mask id="mask0_14_144" style="mask-type:alpha" maskUnits="userSpaceOnUse" x="3" y="15" width="52" height="45">
<path d="M29.0791 15.9316L54.2624 59.7568H3.89587L29.0791 15.9316Z" fill="#D9D9D9"/>
</mask>
<g mask="url(#mask0_14_144)">
<path d="M28.9635 15.9316L54.1468 59.7568H3.78027L28.9635 15.9316Z" fill="#077644"/>
<rect x="29.0791" y="15.9316" width="25.0081" height="43.8251" fill="#F48CBB"/>
</g>
<ellipse cx="77.372" cy="37.1755" rx="23.0756" ry="23.1848" fill="#3038FF"/>
<mask id="mask1_14_144" style="mask-type:alpha" maskUnits="userSpaceOnUse" x="54" y="13" width="47" height="48">
<ellipse cx="77.372" cy="37.1755" rx="23.0756" ry="23.1848" fill="#077644"/>
</mask>
<g mask="url(#mask1_14_144)">
<rect x="77.3721" y="13.9907" width="23.0756" height="23.1848" fill="#077644"/>
</g>
<mask id="mask2_14_144" style="mask-type:alpha" maskUnits="userSpaceOnUse" x="54" y="13" width="47" height="48">
<ellipse cx="77.372" cy="37.1755" rx="23.0756" ry="23.1848" fill="#3038FF"/>
</mask>
<g mask="url(#mask2_14_144)">
<rect x="77.3721" y="37.1753" width="23.0756" height="23.1848" fill="#3038FF"/>
</g>
<mask id="mask3_14_144" style="mask-type:alpha" maskUnits="userSpaceOnUse" x="54" y="13" width="47" height="48">
<ellipse cx="77.372" cy="37.1755" rx="23.0756" ry="23.1848" fill="#F48CBB"/>
</mask>
<g mask="url(#mask3_14_144)">
<rect x="54.2964" y="37.1753" width="23.0756" height="23.1848" fill="#F48CBB"/>
</g>
<path d="M114.428 59.9609L133.539 14.9721H133.955L153.066 59.9609H145.113L131.64 25.8335L136.626 22.4504L121.254 59.9609H114.428ZM126.417 43.9359H141.196L143.57 49.8117H124.34L126.417 43.9359ZM169.639 16.7526C172.013 16.7526 174.189 17.0692 176.167 17.7023C178.146 18.2958 179.827 19.1861 181.212 20.3731C182.597 21.5602 183.665 23.0242 184.417 24.7652C185.209 26.4666 185.604 28.4252 185.604 30.641C185.604 32.3424 185.347 34.0439 184.833 35.7453C184.318 37.4467 183.468 38.9899 182.28 40.3748C181.133 41.7596 179.61 42.8675 177.71 43.6985C175.811 44.5294 173.457 44.9449 170.647 44.9449H164.416V59.9609H157.471V16.7526H169.639ZM170.588 38.2974C172.131 38.2974 173.417 38.06 174.446 37.5852C175.475 37.0708 176.266 36.4377 176.82 35.6859C177.414 34.9342 177.829 34.1428 178.067 33.3119C178.343 32.4414 178.482 31.6302 178.482 30.8784C178.482 30.1662 178.363 29.3946 178.126 28.5637C177.888 27.6932 177.493 26.8821 176.939 26.1303C176.385 25.3389 175.594 24.686 174.565 24.1716C173.576 23.6573 172.329 23.4001 170.826 23.4001H164.416V38.2974H170.588ZM178.067 42.3927L189.106 59.9609H181.093L169.817 42.5708L178.067 42.3927ZM194.265 16.7526H201.209V59.9609H194.265V16.7526ZM205.624 59.9609L224.735 14.9721H225.151L244.262 59.9609H236.309L222.836 25.8335L227.822 22.4504L212.449 59.9609H205.624ZM217.613 43.9359H232.392L234.766 49.8117H215.536L217.613 43.9359ZM262.04 38.4161C262.04 35.409 262.614 32.5799 263.761 29.9288C264.909 27.2777 266.491 24.9234 268.509 22.8659C270.527 20.8084 272.862 19.2059 275.513 18.0584C278.203 16.8713 281.072 16.2778 284.119 16.2778C287.126 16.2778 289.955 16.8713 292.606 18.0584C295.297 19.2059 297.651 20.8084 299.669 22.8659C301.727 24.9234 303.329 27.2777 304.477 29.9288C305.664 32.5799 306.257 35.409 306.257 38.4161C306.257 41.4629 305.664 44.3118 304.477 46.9628C303.329 49.6139 301.727 51.9682 299.669 54.0257C297.651 56.0437 295.297 57.6264 292.606 58.7739C289.955 59.8818 287.126 60.4358 284.119 60.4358C281.033 60.4358 278.164 59.8818 275.513 58.7739C272.862 57.6264 270.527 56.0635 268.509 54.0851C266.491 52.0671 264.909 49.7326 263.761 47.0815C262.614 44.3909 262.04 41.5024 262.04 38.4161ZM269.162 38.4161C269.162 40.5528 269.538 42.551 270.29 44.4107C271.081 46.2704 272.169 47.9125 273.554 49.3369C274.939 50.7218 276.542 51.8099 278.362 52.6013C280.182 53.3926 282.16 53.7883 284.297 53.7883C286.354 53.7883 288.274 53.3926 290.054 52.6013C291.874 51.8099 293.457 50.7218 294.802 49.3369C296.148 47.9125 297.196 46.2704 297.948 44.4107C298.739 42.551 299.135 40.5528 299.135 38.4161C299.135 36.2399 298.739 34.2219 297.948 32.3622C297.157 30.5025 296.088 28.8605 294.743 27.436C293.398 26.0116 291.815 24.9037 289.995 24.1123C288.175 23.3209 286.216 22.9253 284.119 22.9253C282.022 22.9253 280.063 23.3209 278.243 24.1123C276.423 24.9037 274.82 26.0116 273.436 27.436C272.09 28.8605 271.042 30.5223 270.29 32.4216C269.538 34.2813 269.162 36.2795 269.162 38.4161ZM335.189 25.5367C333.646 24.7454 332.004 24.0727 330.263 23.5188C328.522 22.9253 326.86 22.6285 325.278 22.6285C323.141 22.6285 321.44 23.1033 320.173 24.0529C318.947 25.0026 318.333 26.3083 318.333 27.9702C318.333 29.1572 318.769 30.2058 319.639 31.1158C320.51 31.9863 321.618 32.7579 322.963 33.4306C324.308 34.0637 325.733 34.677 327.236 35.2705C328.542 35.7453 329.828 36.319 331.094 36.9917C332.4 37.6248 333.567 38.4161 334.596 39.3658C335.625 40.3154 336.436 41.5024 337.029 42.9269C337.662 44.3118 337.979 46.033 337.979 48.0905C337.979 50.3459 337.405 52.4232 336.258 54.3225C335.11 56.1822 333.468 57.666 331.332 58.7739C329.195 59.8818 326.583 60.4358 323.497 60.4358C321.717 60.4358 319.956 60.2379 318.215 59.8422C316.513 59.4466 314.891 58.9124 313.348 58.2397C311.805 57.5275 310.38 56.7361 309.075 55.8656L312.161 50.4646C313.111 51.1768 314.199 51.8297 315.425 52.4232C316.652 53.0167 317.918 53.4916 319.224 53.8477C320.53 54.1642 321.756 54.3225 322.904 54.3225C324.13 54.3225 325.337 54.1247 326.524 53.729C327.751 53.3333 328.76 52.6804 329.551 51.7704C330.382 50.8603 330.797 49.6535 330.797 48.1499C330.797 46.9233 330.441 45.8747 329.729 45.0042C329.017 44.1337 328.087 43.3819 326.94 42.7488C325.832 42.0762 324.605 41.4827 323.26 40.9683C321.914 40.4539 320.53 39.8802 319.105 39.2471C317.72 38.614 316.434 37.8424 315.247 36.9323C314.06 35.9827 313.091 34.8352 312.339 33.4899C311.587 32.1446 311.211 30.4827 311.211 28.5043C311.211 26.1303 311.765 24.0727 312.873 22.3317C313.981 20.5907 315.504 19.2059 317.443 18.1771C319.422 17.1483 321.697 16.5944 324.269 16.5152C327.315 16.5152 329.907 16.8911 332.044 17.6429C334.22 18.3551 336.139 19.2256 337.801 20.2544L335.189 25.5367ZM344.094 16.7526H351.038V53.3135H372.346V59.9609H344.094V16.7526ZM374.855 38.4161C374.855 35.409 375.429 32.5799 376.576 29.9288C377.724 27.2777 379.307 24.9234 381.325 22.8659C383.343 20.8084 385.677 19.2059 388.328 18.0584C391.019 16.8713 393.887 16.2778 396.934 16.2778C399.941 16.2778 402.77 16.8713 405.422 18.0584C408.112 19.2059 410.466 20.8084 412.484 22.8659C414.542 24.9234 416.144 27.2777 417.292 29.9288C418.479 32.5799 419.072 35.409 419.072 38.4161C419.072 41.4629 418.479 44.3118 417.292 46.9628C416.144 49.6139 414.542 51.9682 412.484 54.0257C410.466 56.0437 408.112 57.6264 405.422 58.7739C402.77 59.8818 399.941 60.4358 396.934 60.4358C393.848 60.4358 390.979 59.8818 388.328 58.7739C385.677 57.6264 383.343 56.0635 381.325 54.0851C379.307 52.0671 377.724 49.7326 376.576 47.0815C375.429 44.3909 374.855 41.5024 374.855 38.4161ZM381.977 38.4161C381.977 40.5528 382.353 42.551 383.105 44.4107C383.897 46.2704 384.985 47.9125 386.37 49.3369C387.754 50.7218 389.357 51.8099 391.177 52.6013C392.997 53.3926 394.976 53.7883 397.112 53.7883C399.17 53.7883 401.089 53.3926 402.869 52.6013C404.69 51.8099 406.272 50.7218 407.618 49.3369C408.963 47.9125 410.011 46.2704 410.763 44.4107C411.555 42.551 411.95 40.5528 411.95 38.4161C411.95 36.2399 411.555 34.2219 410.763 32.3622C409.972 30.5025 408.904 28.8605 407.558 27.436C406.213 26.0116 404.63 24.9037 402.81 24.1123C400.99 23.3209 399.031 22.9253 396.934 22.9253C394.837 22.9253 392.878 23.3209 391.058 24.1123C389.238 24.9037 387.636 26.0116 386.251 27.436C384.905 28.8605 383.857 30.5223 383.105 32.4216C382.353 34.2813 381.977 36.2795 381.977 38.4161Z" fill="#F48CBB"/>
</svg>
